<svg xmlns="http://www.w3.org/2000/svg" viewBox="0 0 128 128">
  <defs>
    <linearGradient id="g" x1="0" y1="0" x2="1" y2="1">
      <stop offset="0%" stop-color="#2196F3"/>
      <stop offset="100%" stop-color="#21CBF3"/>
    </linearGradient>
  </defs>
  <rect x="8" y="8" width="112" height="112" rx="24" fill="url(#g)"/>
  <g fill="#fff">
    <path d="M40 64a24 24 0 1 1 48 0 24 24 0 0 1-48 0zm10 0a14 14 0 1 0 28 0 14 14 0 0 0-28 0z" opacity="0.9"/>
    <path d="M64 28c3 0 6 2 6 5v62c0 3-3 5-6 5s-6-2-6-5V33c0-3 3-5 6-5z" opacity="0.85"/>
  </g>
</svg>

